<mxfile host="app.diagrams.net" modified="2022-11-23T06:56:43.414Z" agent="5.0 (Windows NT 10.0; Win64; x64) AppleWebKit/537.36 (KHTML, like Gecko) Chrome/107.0.0.0 Safari/537.36" version="20.6.0" etag="RkOnGBN2M__u7CiQCyzb" type="github">
  <diagram id="e-JogLh6bLFmt5J83hUR" name="第 1 页">
    <mxGraphModel dx="1303" dy="727" grid="1" gridSize="10" guides="1" tooltips="1" connect="1" arrows="1" fold="1" page="1" pageScale="1" pageWidth="827" pageHeight="1169" math="0" shadow="0">
      <root>
        <mxCell id="0" />
        <mxCell id="1" parent="0" />
        <mxCell id="k7GEWYjgGeArK8Uqiszh-1" value="适配器模式（包装器模式）：将一个类的接口转换成客户希望的另一个接口，适配器模式让那些接口不兼容的类可以一起工作" style="text;html=1;strokeColor=none;fillColor=none;align=center;verticalAlign=middle;whiteSpace=wrap;rounded=0;" vertex="1" parent="1">
          <mxGeometry x="30" y="20" width="180" height="140" as="geometry" />
        </mxCell>
        <mxCell id="k7GEWYjgGeArK8Uqiszh-71" value="" style="edgeStyle=orthogonalEdgeStyle;rounded=0;orthogonalLoop=1;jettySize=auto;html=1;endArrow=open;endFill=0;" edge="1" parent="1" source="k7GEWYjgGeArK8Uqiszh-2" target="k7GEWYjgGeArK8Uqiszh-4">
          <mxGeometry relative="1" as="geometry" />
        </mxCell>
        <mxCell id="k7GEWYjgGeArK8Uqiszh-2" value="&lt;p style=&quot;margin:0px;margin-top:4px;text-align:center;&quot;&gt;&lt;b&gt;client&lt;/b&gt;&lt;/p&gt;&lt;hr size=&quot;1&quot;&gt;&lt;div style=&quot;height:2px;&quot;&gt;&lt;/div&gt;&lt;hr size=&quot;1&quot;&gt;&lt;div style=&quot;height:2px;&quot;&gt;&lt;/div&gt;" style="verticalAlign=top;align=left;overflow=fill;fontSize=12;fontFamily=Helvetica;html=1;" vertex="1" parent="1">
          <mxGeometry x="140" y="160" width="140" height="60" as="geometry" />
        </mxCell>
        <mxCell id="k7GEWYjgGeArK8Uqiszh-4" value="&lt;p style=&quot;margin:0px;margin-top:4px;text-align:center;&quot;&gt;&lt;b&gt;Target&lt;/b&gt;&lt;/p&gt;&lt;hr size=&quot;1&quot;&gt;&lt;p style=&quot;margin:0px;margin-left:4px;&quot;&gt;&lt;br&gt;&lt;/p&gt;&lt;hr size=&quot;1&quot;&gt;&lt;p style=&quot;margin:0px;margin-left:4px;&quot;&gt;+request&lt;/p&gt;" style="verticalAlign=top;align=left;overflow=fill;fontSize=12;fontFamily=Helvetica;html=1;" vertex="1" parent="1">
          <mxGeometry x="370" y="145" width="160" height="90" as="geometry" />
        </mxCell>
        <mxCell id="k7GEWYjgGeArK8Uqiszh-5" value="&lt;p style=&quot;margin:0px;margin-top:4px;text-align:center;&quot;&gt;&lt;b&gt;Adaptee&lt;/b&gt;&lt;/p&gt;&lt;hr size=&quot;1&quot;&gt;&lt;p style=&quot;margin:0px;margin-left:4px;&quot;&gt;&lt;br&gt;&lt;/p&gt;&lt;hr size=&quot;1&quot;&gt;&lt;p style=&quot;margin:0px;margin-left:4px;&quot;&gt;+specificrequest():&amp;nbsp;&lt;/p&gt;" style="verticalAlign=top;align=left;overflow=fill;fontSize=12;fontFamily=Helvetica;html=1;" vertex="1" parent="1">
          <mxGeometry x="580" y="145" width="160" height="90" as="geometry" />
        </mxCell>
        <mxCell id="k7GEWYjgGeArK8Uqiszh-8" style="edgeStyle=orthogonalEdgeStyle;rounded=0;orthogonalLoop=1;jettySize=auto;html=1;endArrow=block;endFill=0;" edge="1" parent="1" source="k7GEWYjgGeArK8Uqiszh-6">
          <mxGeometry relative="1" as="geometry">
            <mxPoint x="430" y="240" as="targetPoint" />
          </mxGeometry>
        </mxCell>
        <mxCell id="k7GEWYjgGeArK8Uqiszh-9" style="edgeStyle=orthogonalEdgeStyle;rounded=0;orthogonalLoop=1;jettySize=auto;html=1;endArrow=block;endFill=0;" edge="1" parent="1" source="k7GEWYjgGeArK8Uqiszh-6" target="k7GEWYjgGeArK8Uqiszh-5">
          <mxGeometry relative="1" as="geometry" />
        </mxCell>
        <mxCell id="k7GEWYjgGeArK8Uqiszh-6" value="&lt;p style=&quot;margin:0px;margin-top:4px;text-align:center;&quot;&gt;&lt;b&gt;Adapter&lt;/b&gt;&lt;/p&gt;&lt;hr size=&quot;1&quot;&gt;&lt;p style=&quot;margin:0px;margin-left:4px;&quot;&gt;+ adaptee: Adaptee&lt;/p&gt;&lt;hr size=&quot;1&quot;&gt;&lt;p style=&quot;margin:0px;margin-left:4px;&quot;&gt;+request():&amp;nbsp;&lt;/p&gt;" style="verticalAlign=top;align=left;overflow=fill;fontSize=12;fontFamily=Helvetica;html=1;" vertex="1" parent="1">
          <mxGeometry x="430" y="300" width="160" height="90" as="geometry" />
        </mxCell>
        <mxCell id="k7GEWYjgGeArK8Uqiszh-12" style="edgeStyle=orthogonalEdgeStyle;rounded=0;orthogonalLoop=1;jettySize=auto;html=1;entryX=0;entryY=0.75;entryDx=0;entryDy=0;endArrow=none;endFill=0;" edge="1" parent="1" source="k7GEWYjgGeArK8Uqiszh-11" target="k7GEWYjgGeArK8Uqiszh-6">
          <mxGeometry relative="1" as="geometry" />
        </mxCell>
        <mxCell id="k7GEWYjgGeArK8Uqiszh-11" value="adaptee.specificrequest()" style="text;align=center;fontStyle=1;verticalAlign=middle;spacingLeft=3;spacingRight=3;strokeColor=none;rotatable=0;points=[[0,0.5],[1,0.5]];portConstraint=eastwest;" vertex="1" parent="1">
          <mxGeometry x="280" y="390" width="80" height="26" as="geometry" />
        </mxCell>
        <mxCell id="k7GEWYjgGeArK8Uqiszh-51" value="" style="edgeStyle=orthogonalEdgeStyle;rounded=0;orthogonalLoop=1;jettySize=auto;html=1;fontSize=15;endArrow=block;endFill=1;" edge="1" parent="1" source="k7GEWYjgGeArK8Uqiszh-52" target="k7GEWYjgGeArK8Uqiszh-56">
          <mxGeometry relative="1" as="geometry" />
        </mxCell>
        <mxCell id="k7GEWYjgGeArK8Uqiszh-52" value="client" style="swimlane;fontStyle=1;align=center;verticalAlign=top;childLayout=stackLayout;horizontal=1;startSize=26;horizontalStack=0;resizeParent=1;resizeParentMax=0;resizeLast=0;collapsible=1;marginBottom=0;fontSize=15;" vertex="1" parent="1">
          <mxGeometry x="30" y="1010" width="160" height="34" as="geometry" />
        </mxCell>
        <mxCell id="k7GEWYjgGeArK8Uqiszh-53" value="" style="line;strokeWidth=1;fillColor=none;align=left;verticalAlign=middle;spacingTop=-1;spacingLeft=3;spacingRight=3;rotatable=0;labelPosition=right;points=[];portConstraint=eastwest;strokeColor=inherit;fontSize=15;" vertex="1" parent="k7GEWYjgGeArK8Uqiszh-52">
          <mxGeometry y="26" width="160" height="8" as="geometry" />
        </mxCell>
        <mxCell id="k7GEWYjgGeArK8Uqiszh-54" value="CarController" style="swimlane;fontStyle=1;align=center;verticalAlign=top;childLayout=stackLayout;horizontal=1;startSize=26;horizontalStack=0;resizeParent=1;resizeParentMax=0;resizeLast=0;collapsible=1;marginBottom=0;fontSize=15;" vertex="1" parent="1">
          <mxGeometry x="260" y="780" width="160" height="100" as="geometry" />
        </mxCell>
        <mxCell id="k7GEWYjgGeArK8Uqiszh-55" value="" style="line;strokeWidth=1;fillColor=none;align=left;verticalAlign=middle;spacingTop=-1;spacingLeft=3;spacingRight=3;rotatable=0;labelPosition=right;points=[];portConstraint=eastwest;strokeColor=inherit;fontSize=15;" vertex="1" parent="k7GEWYjgGeArK8Uqiszh-54">
          <mxGeometry y="26" width="160" height="8" as="geometry" />
        </mxCell>
        <mxCell id="k7GEWYjgGeArK8Uqiszh-56" value="+ move(): void&#xa;+phonate():void&#xa;+twinkle():void" style="text;strokeColor=none;fillColor=none;align=left;verticalAlign=top;spacingLeft=4;spacingRight=4;overflow=hidden;rotatable=0;points=[[0,0.5],[1,0.5]];portConstraint=eastwest;fontSize=15;" vertex="1" parent="k7GEWYjgGeArK8Uqiszh-54">
          <mxGeometry y="34" width="160" height="66" as="geometry" />
        </mxCell>
        <mxCell id="k7GEWYjgGeArK8Uqiszh-57" style="edgeStyle=orthogonalEdgeStyle;rounded=0;orthogonalLoop=1;jettySize=auto;html=1;entryX=0.413;entryY=1.01;entryDx=0;entryDy=0;entryPerimeter=0;fontSize=15;endArrow=block;endFill=0;" edge="1" parent="1" source="k7GEWYjgGeArK8Uqiszh-58" target="k7GEWYjgGeArK8Uqiszh-56">
          <mxGeometry relative="1" as="geometry" />
        </mxCell>
        <mxCell id="k7GEWYjgGeArK8Uqiszh-58" value="PolicCarAdapter" style="swimlane;fontStyle=1;align=center;verticalAlign=top;childLayout=stackLayout;horizontal=1;startSize=26;horizontalStack=0;resizeParent=1;resizeParentMax=0;resizeLast=0;collapsible=1;marginBottom=0;fontSize=15;" vertex="1" parent="1">
          <mxGeometry x="235" y="930" width="160" height="220" as="geometry" />
        </mxCell>
        <mxCell id="k7GEWYjgGeArK8Uqiszh-59" value="-sound : PolicSound&#xa;-lamp:PolicLamp" style="text;strokeColor=none;fillColor=none;align=left;verticalAlign=top;spacingLeft=4;spacingRight=4;overflow=hidden;rotatable=0;points=[[0,0.5],[1,0.5]];portConstraint=eastwest;fontSize=15;" vertex="1" parent="k7GEWYjgGeArK8Uqiszh-58">
          <mxGeometry y="26" width="160" height="64" as="geometry" />
        </mxCell>
        <mxCell id="k7GEWYjgGeArK8Uqiszh-60" value="" style="line;strokeWidth=1;fillColor=none;align=left;verticalAlign=middle;spacingTop=-1;spacingLeft=3;spacingRight=3;rotatable=0;labelPosition=right;points=[];portConstraint=eastwest;strokeColor=inherit;fontSize=15;" vertex="1" parent="k7GEWYjgGeArK8Uqiszh-58">
          <mxGeometry y="90" width="160" height="8" as="geometry" />
        </mxCell>
        <mxCell id="k7GEWYjgGeArK8Uqiszh-61" value="+policeCarAdapter()&#xa;+phonate():void&#xa;+twinkle():void" style="text;strokeColor=none;fillColor=none;align=left;verticalAlign=top;spacingLeft=4;spacingRight=4;overflow=hidden;rotatable=0;points=[[0,0.5],[1,0.5]];portConstraint=eastwest;fontSize=15;" vertex="1" parent="k7GEWYjgGeArK8Uqiszh-58">
          <mxGeometry y="98" width="160" height="122" as="geometry" />
        </mxCell>
        <mxCell id="k7GEWYjgGeArK8Uqiszh-62" style="edgeStyle=orthogonalEdgeStyle;rounded=0;orthogonalLoop=1;jettySize=auto;html=1;entryX=1.017;entryY=0.271;entryDx=0;entryDy=0;entryPerimeter=0;fontSize=15;endArrow=diamond;endFill=1;" edge="1" parent="1" source="k7GEWYjgGeArK8Uqiszh-63" target="k7GEWYjgGeArK8Uqiszh-59">
          <mxGeometry relative="1" as="geometry" />
        </mxCell>
        <mxCell id="k7GEWYjgGeArK8Uqiszh-63" value="PoliceSound" style="swimlane;fontStyle=1;align=center;verticalAlign=top;childLayout=stackLayout;horizontal=1;startSize=26;horizontalStack=0;resizeParent=1;resizeParentMax=0;resizeLast=0;collapsible=1;marginBottom=0;fontSize=15;" vertex="1" parent="1">
          <mxGeometry x="640" y="960" width="160" height="60" as="geometry" />
        </mxCell>
        <mxCell id="k7GEWYjgGeArK8Uqiszh-64" value="" style="line;strokeWidth=1;fillColor=none;align=left;verticalAlign=middle;spacingTop=-1;spacingLeft=3;spacingRight=3;rotatable=0;labelPosition=right;points=[];portConstraint=eastwest;strokeColor=inherit;fontSize=15;" vertex="1" parent="k7GEWYjgGeArK8Uqiszh-63">
          <mxGeometry y="26" width="160" height="8" as="geometry" />
        </mxCell>
        <mxCell id="k7GEWYjgGeArK8Uqiszh-65" value="+ alarmSound(): void" style="text;strokeColor=none;fillColor=none;align=left;verticalAlign=top;spacingLeft=4;spacingRight=4;overflow=hidden;rotatable=0;points=[[0,0.5],[1,0.5]];portConstraint=eastwest;fontSize=15;" vertex="1" parent="k7GEWYjgGeArK8Uqiszh-63">
          <mxGeometry y="34" width="160" height="26" as="geometry" />
        </mxCell>
        <mxCell id="k7GEWYjgGeArK8Uqiszh-66" value="PoliceLamp" style="swimlane;fontStyle=1;align=center;verticalAlign=top;childLayout=stackLayout;horizontal=1;startSize=26;horizontalStack=0;resizeParent=1;resizeParentMax=0;resizeLast=0;collapsible=1;marginBottom=0;fontSize=15;" vertex="1" parent="1">
          <mxGeometry x="610" y="1070" width="160" height="60" as="geometry" />
        </mxCell>
        <mxCell id="k7GEWYjgGeArK8Uqiszh-67" value="" style="line;strokeWidth=1;fillColor=none;align=left;verticalAlign=middle;spacingTop=-1;spacingLeft=3;spacingRight=3;rotatable=0;labelPosition=right;points=[];portConstraint=eastwest;strokeColor=inherit;fontSize=15;" vertex="1" parent="k7GEWYjgGeArK8Uqiszh-66">
          <mxGeometry y="26" width="160" height="8" as="geometry" />
        </mxCell>
        <mxCell id="k7GEWYjgGeArK8Uqiszh-68" value="+ alarmLamp(): void" style="text;strokeColor=none;fillColor=none;align=left;verticalAlign=top;spacingLeft=4;spacingRight=4;overflow=hidden;rotatable=0;points=[[0,0.5],[1,0.5]];portConstraint=eastwest;fontSize=15;" vertex="1" parent="k7GEWYjgGeArK8Uqiszh-66">
          <mxGeometry y="34" width="160" height="26" as="geometry" />
        </mxCell>
        <mxCell id="k7GEWYjgGeArK8Uqiszh-69" style="edgeStyle=orthogonalEdgeStyle;rounded=0;orthogonalLoop=1;jettySize=auto;html=1;entryX=1;entryY=0.5;entryDx=0;entryDy=0;fontSize=15;endArrow=diamondThin;endFill=1;" edge="1" parent="1" source="k7GEWYjgGeArK8Uqiszh-68" target="k7GEWYjgGeArK8Uqiszh-61">
          <mxGeometry relative="1" as="geometry" />
        </mxCell>
        <mxCell id="k7GEWYjgGeArK8Uqiszh-70" value="&lt;font style=&quot;font-size: 15px;&quot;&gt;实例一、&lt;br&gt;&lt;span style=&quot;background-color: initial;&quot;&gt;某公司欲开发一款儿童玩具汽车，为了更好地吸引小朋友的注意力，该&lt;/span&gt;&lt;/font&gt;&lt;div style=&quot;font-size: 15px;&quot;&gt;&lt;font style=&quot;font-size: 15px;&quot;&gt;玩具汽车在移动过程中伴随着灯光闪烁和声音提示。在该公司以往的产品&lt;/font&gt;&lt;/div&gt;&lt;div style=&quot;font-size: 15px;&quot;&gt;&lt;font style=&quot;font-size: 15px;&quot;&gt;中已经实现了控制灯光闪烁（例如警灯闪烁）和声音提示（例如警笛音效）&lt;/font&gt;&lt;/div&gt;&lt;div style=&quot;font-size: 15px;&quot;&gt;&lt;font style=&quot;font-size: 15px;&quot;&gt;的程序，为了重用先前的代码并且使得汽车控制软件具有更好的灵活性和&lt;/font&gt;&lt;/div&gt;&lt;div style=&quot;font-size: 15px;&quot;&gt;&lt;font style=&quot;font-size: 15px;&quot;&gt;扩展性，现使用适配器模式设计该玩具汽车控制软件&lt;/font&gt;&lt;/div&gt;" style="text;html=1;strokeColor=none;fillColor=none;align=center;verticalAlign=middle;whiteSpace=wrap;rounded=0;" vertex="1" parent="1">
          <mxGeometry x="60" y="450" width="510" height="240" as="geometry" />
        </mxCell>
      </root>
    </mxGraphModel>
  </diagram>
</mxfile>
